<?xml version="1.0" encoding="UTF-8"?>
<svg width="20px" height="13px" viewBox="0 0 20 13" version="1.1" xmlns="http://www.w3.org/2000/svg" xmlns:xlink="http://www.w3.org/1999/xlink">
    <!-- Generator: Sketch 41.2 (35397) - http://www.bohemiancoding.com/sketch -->
    <title>behance</title>
    <desc>Created with Sketch.</desc>
    <defs></defs>
    <g id="Symbols" stroke="none" stroke-width="1" fill="none" fill-rule="evenodd">
        <g id="Footer" transform="translate(-178.000000, -437.000000)" fill="#FFFFFF">
            <g id="behance" transform="translate(178.000000, 437.000000)">
                <g id="Layer_21">
                    <path d="M20,8.01581 C20,3.82807 17.39929,2.96619 15.51563,2.96619 C14.2696253,2.888888 13.0511597,3.35473121 12.1745256,4.2435595 C11.2978914,5.13238779 10.8489238,6.35717203 10.94343,7.60199 C10.94343,11.3764 13.00581,12.61699 15.69543,12.61699 C17.6043561,12.7313466 19.3415792,11.5186846 19.89233,9.68736 L17.30939,9.68736 C17.0443969,10.3347106 16.3929968,10.7380822 15.69539,10.68681 C15.0943815,10.7435247 14.4988479,10.5330179 14.0669863,10.1112084 C13.6351246,9.68939893 13.410653,9.09898731 13.4532,8.49681 L20,8.49681 L20,8.01581 Z M13.52533,7 C13.66858,5.79358 14.29681,4.94806 15.4801,4.94806 C16.5766592,4.9907619 17.4375888,5.90280191 17.41705,7 L13.52533,7 Z" id="Shape"></path>
                    <rect id="Rectangle-path" x="13" y="0.58563" width="5" height="1.41437"></rect>
                    <path d="M8.30621,5.70648 C9.31590932,5.28981602 9.93252931,4.25994651 9.823,3.17316 C9.823,1.89789 9.04755,0.00244 6.01392,0.00244 L0,0.00244 L0,12.37585 L5.23846,12.37585 C7.77179,12.37585 8.44384,11.94494 9.151,11.25585 C9.83308436,10.5819936 10.2178375,9.66366057 10.21979,8.70485 C10.3470654,7.38432905 9.55751114,6.14718407 8.30621,5.70648 L8.30621,5.70648 Z M2.5,2 L6,2 C6.82842712,2 7.5,2.67157288 7.5,3.5 C7.5,4.32842712 6.82842712,5 6,5 L2.5,5 L2.5,2 Z M6.25,10 L2.5,10 L2.5,7 L6.25,7 C7.07842712,7 7.75,7.67157288 7.75,8.5 C7.75,9.32842712 7.07842712,10 6.25,10 Z" id="Shape"></path>
                </g>
            </g>
        </g>
    </g>
</svg>