<?xml version="1.0" encoding="UTF-8"?>
<svg width="46px" height="43px" viewBox="0 0 46 43" version="1.1" xmlns="http://www.w3.org/2000/svg" xmlns:xlink="http://www.w3.org/1999/xlink">
    <!-- Generator: Sketch 41.2 (35397) - http://www.bohemiancoding.com/sketch -->
    <title>logo-symbol</title>
    <desc>Created with Sketch.</desc>
    <defs></defs>
    <g id="Sergeev-studio" stroke="none" stroke-width="1" fill="none" fill-rule="evenodd">
        <g id="Landing-page" transform="translate(-137.000000, -45.000000)" fill="#444444">
            <g id="logo-symbol" transform="translate(137.000000, 45.000000)">
                <polygon id="Fill-1" points="15.5539143 15.7053793 7.3015873e-05 31.4752586 12.8012159 31.4752586 1.68673968 42.7457069 8.14572381 42.7457069 23.5710571 27.084069 10.6333746 27.084069 21.8398508 15.7053793"></polygon>
                <polygon id="Fill-2" points="37.3217714 -0.000148275862 21.7679302 15.7704724 34.5698032 15.7704724 23.4545968 27.0401793 29.913581 27.0401793 45.3389143 11.3785414 32.4012317 11.3785414 43.6069778 -0.000148275862"></polygon>
                <polygon id="Fill-3" points="41.3645143 30.6922879 41.3645143 38.7911155 33.5540063 38.7911155 33.5540063 42.7456328 45.3387683 42.7456328 45.3387683 30.6922879"></polygon>
                <polygon id="Fill-4" points="0 -0.000148275862 0 12.0531966 3.97425397 12.0531966 3.97425397 3.95362759 11.7854921 3.95362759 11.7854921 -0.000148275862"></polygon>
            </g>
        </g>
    </g>
</svg>