<?xml version="1.0" encoding="UTF-8"?>
<svg width="20px" height="14px" viewBox="0 0 20 14" version="1.1" xmlns="http://www.w3.org/2000/svg" xmlns:xlink="http://www.w3.org/1999/xlink">
    <!-- Generator: Sketch 41.2 (35397) - http://www.bohemiancoding.com/sketch -->
    <title>youtube</title>
    <desc>Created with Sketch.</desc>
    <defs></defs>
    <g id="Symbols" stroke="none" stroke-width="1" fill="none" fill-rule="evenodd">
        <g id="Footer" transform="translate(-285.000000, -436.000000)" fill="#FFFFFF">
            <g id="youtube" transform="translate(285.000000, 436.000000)">
                <g id="Layer_21">
                    <path d="M19.80731,2.805 C19.6860757,1.45233738 18.6113692,0.381851161 17.25824,0.26594 C15.69061,0.13586 13.36707,0 10.50012,0 C7.04761,0 4.44147,0.14105 2.75659,0.27332 C1.39674199,0.382565219 0.313677939,1.45616335 0.1925,2.815 C0.08936,3.90021 0,5.33344 0,7.0423 C0,8.70862 0.08862,10.11652 0.19128,11.18824 C0.313663461,12.545831 1.39637313,13.6177678 2.75512,13.72657 C4.43994,13.85883 7.04657,14 10.50012,14 C13.36706,14 15.69061,13.86414 17.25824,13.734 C18.611376,13.6181522 19.686107,12.5476668 19.80731,11.195 C19.91052,10.11548 20,8.69189 20,7 C20,5.30811 19.91052,3.88452 19.80731,2.805 Z M7.77594,9.93878 L7.77594,4.06122 L13.574,7 L7.77594,9.93878 Z" id="Shape"></path>
                </g>
            </g>
        </g>
    </g>
</svg>